<svg width="50" height="50" viewBox="0 0 50 50" fill="none" xmlns="http://www.w3.org/2000/svg">
<path fill-rule="evenodd" clip-rule="evenodd" d="M25 37.5C31.9035 37.5 37.5 31.9035 37.5 25C37.5 18.0964 31.9035 12.5 25 12.5C18.0964 12.5 12.5 18.0964 12.5 25C12.5 31.9035 18.0964 37.5 25 37.5ZM25 33.3333C29.6023 33.3333 33.3333 29.6023 33.3333 25C33.3333 20.3976 29.6023 16.6667 25 16.6667C20.3976 16.6667 16.6667 20.3976 16.6667 25C16.6667 29.6023 20.3976 33.3333 25 33.3333Z" fill="#310082"/>
<path d="M37.5 10.4167C36.3494 10.4167 35.4167 11.3494 35.4167 12.5C35.4167 13.6506 36.3494 14.5833 37.5 14.5833C38.6506 14.5833 39.5833 13.6506 39.5833 12.5C39.5833 11.3494 38.6506 10.4167 37.5 10.4167Z" fill="#310082"/>
<path fill-rule="evenodd" clip-rule="evenodd" d="M3.44576 8.90845C2.08334 11.5823 2.08334 15.0827 2.08334 22.0833V27.9167C2.08334 34.9173 2.08334 38.4177 3.44576 41.0914C4.64418 43.4435 6.55643 45.3558 8.90847 46.5542C11.5824 47.9167 15.0827 47.9167 22.0833 47.9167H27.9167C34.9173 47.9167 38.4177 47.9167 41.0915 46.5542C43.4436 45.3558 45.3558 43.4435 46.5542 41.0914C47.9167 38.4177 47.9167 34.9173 47.9167 27.9167V22.0833C47.9167 15.0827 47.9167 11.5823 46.5542 8.90845C45.3558 6.55641 43.4436 4.64416 41.0915 3.44574C38.4177 2.08333 34.9173 2.08333 27.9167 2.08333H22.0833C15.0827 2.08333 11.5824 2.08333 8.90847 3.44574C6.55643 4.64416 4.64418 6.55641 3.44576 8.90845ZM27.9167 6.24999H22.0833C18.5143 6.24999 16.088 6.25324 14.2127 6.40645C12.3859 6.5557 11.4518 6.82622 10.8001 7.15827C9.23207 7.95722 7.95724 9.23206 7.15828 10.8001C6.82624 11.4517 6.55572 12.3859 6.40647 14.2127C6.25326 16.088 6.25001 18.5142 6.25001 22.0833V27.9167C6.25001 31.4858 6.25326 33.9119 6.40647 35.7873C6.55572 37.6142 6.82624 38.5483 7.15828 39.2C7.95724 40.7679 9.23207 42.0427 10.8001 42.8417C11.4518 43.1737 12.3859 43.4444 14.2127 43.5935C16.088 43.7467 18.5143 43.75 22.0833 43.75H27.9167C31.4858 43.75 33.9119 43.7467 35.7873 43.5935C37.6142 43.4444 38.5483 43.1737 39.2 42.8417C40.7679 42.0427 42.0427 40.7679 42.8417 39.2C43.1738 38.5483 43.4444 37.6142 43.5936 35.7873C43.7467 33.9119 43.75 31.4858 43.75 27.9167V22.0833C43.75 18.5142 43.7467 16.088 43.5936 14.2127C43.4444 12.3859 43.1738 11.4517 42.8417 10.8001C42.0427 9.23206 40.7679 7.95722 39.2 7.15827C38.5483 6.82622 37.6142 6.5557 35.7873 6.40645C33.9119 6.25324 31.4858 6.24999 27.9167 6.24999Z" fill="#310082"/>
</svg>
